<svg xmlns="http://www.w3.org/2000/svg" height="2em" viewBox="0 0 86.3 85.4" data-v-7a00bd6e=""><g id="Grupo_80" data-name="Grupo 80" transform="translate(-625.03 -3772.001)" data-v-7a00bd6e=""><g id="Grupo_79" data-name="Grupo 79" data-v-7a00bd6e=""><g id="Grupo_75" data-name="Grupo 75" data-v-7a00bd6e=""><g id="Grupo_71" data-name="Grupo 71" data-v-7a00bd6e=""><path id="Trazado_35" data-name="Trazado 35" d="M706.73,3856.4h-77a3.691,3.691,0,0,1-3.7-3.7h0a3.691,3.691,0,0,1,3.7-3.7h76.9a3.691,3.691,0,0,1,3.7,3.7h0A3.608,3.608,0,0,1,706.73,3856.4Z" fill="#c1c1c1" data-v-7a00bd6e=""></path><path id="Trazado_36" data-name="Trazado 36" d="M706.73,3857.4h-77a4.7,4.7,0,0,1,0-9.4h76.9a4.7,4.7,0,0,1,.1,9.4Zm-77-7.3a2.7,2.7,0,0,0,0,5.4h76.9a2.7,2.7,0,1,0,0-5.4Z" fill="#c1c1c1" data-v-7a00bd6e=""></path></g><g id="Grupo_72" data-name="Grupo 72" data-v-7a00bd6e=""><path id="Trazado_37" data-name="Trazado 37" d="M645.43,3844.4h-2.7a5.591,5.591,0,0,1-5.6-5.6v-30.4a5.591,5.591,0,0,1,5.6-5.6h2.7a5.591,5.591,0,0,1,5.6,5.6v30.5A5.635,5.635,0,0,1,645.43,3844.4Z" fill="#c1c1c1" data-v-7a00bd6e=""></path><path id="Trazado_38" data-name="Trazado 38" d="M645.43,3845.4h-2.7a6.593,6.593,0,0,1-6.6-6.6v-30.4a6.594,6.594,0,0,1,6.6-6.6h2.7a6.593,6.593,0,0,1,6.6,6.6v30.5A6.638,6.638,0,0,1,645.43,3845.4Zm-2.7-41.5a4.588,4.588,0,0,0-4.6,4.6V3839a4.588,4.588,0,0,0,4.6,4.6h2.7a4.588,4.588,0,0,0,4.6-4.6v-30.6a4.588,4.588,0,0,0-4.6-4.6h-2.7Z" fill="#c1c1c1" data-v-7a00bd6e=""></path></g><g id="Grupo_73" data-name="Grupo 73" data-v-7a00bd6e=""><path id="Trazado_39" data-name="Trazado 39" d="M669.93,3844.4h-2.7a5.506,5.506,0,0,1-5.5-5.6v-43.7a5.484,5.484,0,0,1,5.5-5.5h2.7a5.484,5.484,0,0,1,5.5,5.5v43.8A5.362,5.362,0,0,1,669.93,3844.4Z" fill="#c1c1c1" data-v-7a00bd6e=""></path><path id="Trazado_40" data-name="Trazado 40" d="M669.93,3845.4h-2.7a6.487,6.487,0,0,1-6.5-6.5v-43.8a6.573,6.573,0,0,1,6.5-6.6h2.7a6.509,6.509,0,0,1,6.5,6.6v43.8A6.363,6.363,0,0,1,669.93,3845.4Zm-2.6-54.9a4.5,4.5,0,0,0-4.5,4.6v43.8a4.481,4.481,0,0,0,4.5,4.5h2.7a4.481,4.481,0,0,0,4.5-4.5v-43.8a4.567,4.567,0,0,0-4.5-4.6Z" fill="#c1c1c1" data-v-7a00bd6e=""></path></g><g id="Grupo_74" data-name="Grupo 74" data-v-7a00bd6e=""><path id="Trazado_41" data-name="Trazado 41" d="M694.53,3844.4h-2.7a5.591,5.591,0,0,1-5.6-5.6v-60a5.591,5.591,0,0,1,5.6-5.6h2.7a5.591,5.591,0,0,1,5.6,5.6v60.1A5.506,5.506,0,0,1,694.53,3844.4Z" fill="#c1c1c1" data-v-7a00bd6e=""></path><path id="Trazado_42" data-name="Trazado 42" d="M694.53,3845.4h-2.7a6.573,6.573,0,0,1-6.6-6.5v-60.1a6.726,6.726,0,0,1,6.6-6.6h2.7a6.573,6.573,0,0,1,6.6,6.5v60.1A6.593,6.593,0,0,1,694.53,3845.4Zm-2.7-71.2a4.567,4.567,0,0,0-4.6,4.5v60.1a4.5,4.5,0,0,0,4.6,4.5h2.7a4.567,4.567,0,0,0,4.6-4.5v-60a4.5,4.5,0,0,0-4.6-4.5h-2.7Z" fill="#c1c1c1" data-v-7a00bd6e=""></path></g></g><g id="Grupo_78" data-name="Grupo 78" data-v-7a00bd6e=""><g id="Grupo_76" data-name="Grupo 76" data-v-7a00bd6e=""><path id="Trazado_43" data-name="Trazado 43" d="M667.83,3772l11.2,1.2-6.7,9.2Z" fill="#c1c1c1" data-v-7a00bd6e=""></path></g><g id="Grupo_77" data-name="Grupo 77" data-v-7a00bd6e=""><rect id="Rectángulo_45" data-name="Rectángulo 45" width="51.698" height="3.1" transform="translate(626.407 3794.777) rotate(-23.861)" fill="#c1c1c1" data-v-7a00bd6e=""></rect></g></g></g></g></svg>