<svg xmlns="http://www.w3.org/2000/svg" class="container-float-top" viewBox="0 0 1077.68 339.772" preserveAspectRatio="none" data-v-06de0303=""><g id="Grupo_195" data-name="Grupo 195" transform="translate(-2241.16)" data-v-06de0303=""><path id="Trazado_122" data-name="Trazado 122" d="M2241.16,0V236.532a103.195,103.195,0,0,0,103.24,103.24h871.2a103.159,103.159,0,0,0,103.24-103.24V0Z" fill="#23bf7d" data-v-06de0303=""></path><g id="Componente_1_1" data-name="Componente 1 – 1" transform="translate(2241.16)" data-v-06de0303=""><path id="Trazado_123" data-name="Trazado 123" d="M3315.94,260.9a103.271,103.271,0,0,1-100.34,78.87H2840.11c46.42-99.78,147.58-168.96,264.89-168.96A291.138,291.138,0,0,1,3315.94,260.9Z" transform="translate(-2241.16)" fill="#37cf92" opacity="0.48" data-v-06de0303=""></path><path id="Trazado_124" data-name="Trazado 124" d="M2241.16,0V236.532a102.441,102.441,0,0,0,.81,12.95C2348.828,214.942,2427.172,117,2432.678,0Z" transform="translate(-2241.16)" fill="#37cf92" opacity="0.48" data-v-06de0303=""></path><g id="Grupo_194" data-name="Grupo 194" transform="translate(-2241.16)" opacity="0.48" data-v-06de0303=""><path id="Trazado_125" data-name="Trazado 125" d="M2709.46,0a75.4,75.4,0,1,1-140.012,0h-84.093a156.9,156.9,0,0,0-2.51,27.966c0,86.351,70.258,156.609,156.609,156.609s156.609-70.258,156.609-156.609A156.9,156.9,0,0,0,2793.553,0Z" fill="#37cf92" data-v-06de0303=""></path></g><path id="Trazado_126" data-name="Trazado 126" d="M3232.646,95.7q-9.069-5.482-18.492-10.552A502.311,502.311,0,0,0,3162.113,60.5c-122.817-49.59-241.386-35.522-343.925,27.241-1.367.815-2.722,1.634-3.953,2.453,4.092-1.1,9.529-3.271,16.2-4.9,1.223-.139,2.457-.407,3.817-.683,1.642-.276,3.265-.544,5.161-.68a161.161,161.161,0,0,1,23.289-1.766c19,0,36.025,2.11,51.016,6.433a123.129,123.129,0,0,1,16.666,6.091,170.155,170.155,0,0,1,37.315,23.148c79.044-37.09,121.773-62.468,275.295-14.752Q3237.887,99.279,3232.646,95.7Z" transform="translate(-2241.16)" fill="#fff" opacity="0.23" data-v-06de0303=""></path><path id="Trazado_127" data-name="Trazado 127" d="M2500.59,339.772h-144.5a76.533,76.533,0,0,1,144.5,0Z" transform="translate(-2241.16)" fill="#37cf92" opacity="0.48" data-v-06de0303=""></path><path id="Trazado_128" data-name="Trazado 128" d="M3318.84,44.561v146.82a79.54,79.54,0,0,1,0-146.82Z" transform="translate(-2241.16)" fill="#37cf92" opacity="0.48" data-v-06de0303=""></path></g></g></svg>